# xmcd
#
# Track frame offsets:
# 150
# 10844
# 21918
# 34610
# 43008
# 54225
# 66040
# 75934
# 84555
# 94645
# 104122
# 116405
# 127250
# 137691
# 149979
# 160479
#
# Disc length: 2268 seconds
#
#
# Revision: 2
# Processed by: cddbd v1.5.1PL2 Copyright (c) Steve Scherf et al.
# Submitted via: FreeRIP 2.945 
#
DISCID=da08da10
DTITLE=Buck Owens - Country Legends
DYEAR=2003
DGENRE=Country
TTITLE0=Act Naturally
TTITLE1=My Heart Skip A Beat
TTITLE2=Close Up The Honky Tonks
TTITLE3=Hello Trouble
TTITLE4=Save The Last Dance For Me
TTITLE5=Kickin' Our Hearts Around
TTITLE6=A-11
TTITLE7=Buck's Polka
TTITLE8=You're For Me
TTITLE9=Second Fiddle
TTITLE10=Under Your Spell Again
TTITLE11=Down On The Corner Of Love
TTITLE12=It Don't Show On Me
TTITLE13=The House Down The Block
TTITLE14=Right After The Dance
TTITLE15=I Know What It Means
EXTD=IMC Music Ltd
EXTT0=
EXTT1=
EXTT2=
EXTT3=
EXTT4=
EXTT5=
EXTT6=
EXTT7=
EXTT8=
EXTT9=
EXTT10=
EXTT11=
EXTT12=
EXTT13=
EXTT14=
EXTT15=
PLAYORDER=
